<svg width="28" height="28" viewBox="0 0 28 28" fill="none" xmlns="http://www.w3.org/2000/svg">
<rect y="2" width="28" height="24" rx="5" fill="#009B65"/>
<path d="M22.8 5H5.2C3.98497 5 3 5.95139 3 7.125V19.875C3 21.0486 3.98497 22 5.2 22H22.8C24.015 22 25 21.0486 25 19.875V7.125C25 5.95139 24.015 5 22.8 5Z" fill="#009B65"/>
<path d="M23.8182 7.33333C23.8182 6.71968 23.3298 6.22222 22.7273 6.22222H5.27273C4.67023 6.22222 4.18182 6.71968 4.18182 7.33333V20.6667C4.18182 21.2803 4.67023 21.7778 5.27273 21.7778H22.7273C23.3298 21.7778 23.8182 21.2803 23.8182 20.6667V7.33333ZM26 20.6667C26 22.5076 24.5348 24 22.7273 24H5.27273C3.46525 24 2 22.5076 2 20.6667V7.33333C2 5.49238 3.46525 4 5.27273 4H22.7273C24.5348 4 26 5.49238 26 7.33333V20.6667Z" fill="#F1F1F1"/>
<path d="M12 9C12.5523 9 13 9.44772 13 10C13 10.5523 12.5523 11 12 11H8C7.44772 11 7 10.5523 7 10C7 9.44772 7.44772 9 8 9H12Z" fill="#F1F1F1"/>
<path d="M16.0049 9C16.5545 9 17 9.44772 17 10C17 10.5523 16.5545 11 16.0049 11H15.9951C15.4455 11 15 10.5523 15 10C15 9.44772 15.4455 9 15.9951 9H16.0049Z" fill="#F1F1F1"/>
<path d="M20.0049 9C20.5545 9 21 9.44772 21 10C21 10.5523 20.5545 11 20.0049 11H19.9951C19.4455 11 19 10.5523 19 10C19 9.44772 19.4455 9 19.9951 9H20.0049Z" fill="#F1F1F1"/>
<path d="M24.9091 13C25.5116 13 26 13.4477 26 14C26 14.5523 25.5116 15 24.9091 15H3.09091C2.48842 15 2 14.5523 2 14C2 13.4477 2.48842 13 3.09091 13H24.9091Z" fill="#F1F1F1"/>
<path d="M7 18V14C7 13.4477 7.44772 13 8 13C8.55228 13 9 13.4477 9 14V18C9 18.5523 8.55228 19 8 19C7.44772 19 7 18.5523 7 18Z" fill="#F1F1F1"/>
<path d="M11 18V14C11 13.4477 11.4477 13 12 13C12.5523 13 13 13.4477 13 14V18C13 18.5523 12.5523 19 12 19C11.4477 19 11 18.5523 11 18Z" fill="#F1F1F1"/>
<path d="M15 18V14C15 13.4477 15.4477 13 16 13C16.5523 13 17 13.4477 17 14V18C17 18.5523 16.5523 19 16 19C15.4477 19 15 18.5523 15 18Z" fill="#F1F1F1"/>
<path d="M19 18V14C19 13.4477 19.4477 13 20 13C20.5523 13 21 13.4477 21 14V18C21 18.5523 20.5523 19 20 19C19.4477 19 19 18.5523 19 18Z" fill="#F1F1F1"/>
<rect x="17" y="4" width="9" height="9" fill="#009B65"/>
<path d="M23.5 9.49999V6.54489L21 6.96164V9.99999C21 10.1381 20.8881 10.25 20.75 10.25C20.6119 10.25 20.5 10.1381 20.5 9.99999V6.74997C20.5 6.62776 20.5884 6.52348 20.709 6.50339L23.709 6.00339C23.7814 5.99133 23.8556 6.01181 23.9116 6.05929C23.9677 6.10679 24 6.1765 24 6.24997V9.49999C24 9.63806 23.8881 9.74999 23.75 9.74999C23.6119 9.74999 23.5 9.63806 23.5 9.49999Z" fill="#F1F1F1"/>
<path d="M20 10.75C20.4142 10.75 20.75 10.4142 20.75 9.99999C20.75 9.58578 20.4142 9.24999 20 9.24999C19.5858 9.24999 19.25 9.58578 19.25 9.99999C19.25 10.4142 19.5858 10.75 20 10.75Z" fill="#F1F1F1"/>
<path d="M20.5 9.99999C20.5 9.72385 20.2761 9.49999 20 9.49999C19.7239 9.49999 19.5 9.72385 19.5 9.99999C19.5 10.2761 19.7239 10.5 20 10.5C20.2761 10.5 20.5 10.2761 20.5 9.99999ZM21 9.99999C21 10.5523 20.5523 11 20 11C19.4477 11 19 10.5523 19 9.99999C19 9.4477 19.4477 8.99999 20 8.99999C20.5523 8.99999 21 9.4477 21 9.99999Z" fill="#F1F1F1"/>
<path d="M23 10.25C23.4142 10.25 23.75 9.91421 23.75 9.49999C23.75 9.08577 23.4142 8.74999 23 8.74999C22.5858 8.74999 22.25 9.08577 22.25 9.49999C22.25 9.91421 22.5858 10.25 23 10.25Z" fill="#F1F1F1"/>
<path d="M23.5 9.49999C23.5 9.22385 23.2761 8.99999 23 8.99999C22.7239 8.99999 22.5 9.22385 22.5 9.49999C22.5 9.77613 22.7239 9.99999 23 9.99999C23.2761 9.99999 23.5 9.77613 23.5 9.49999ZM24 9.49999C24 10.0523 23.5523 10.5 23 10.5C22.4477 10.5 22 10.0523 22 9.49999C22 8.9477 22.4477 8.49998 23 8.49998C23.5523 8.49998 24 8.9477 24 9.49999Z" fill="#F1F1F1"/>
</svg>
